<?xml version="1.0" encoding="utf-8"?>
<!-- Generator: Adobe Illustrator 16.0.0, SVG Export Plug-In . SVG Version: 6.00 Build 0)  -->
<!DOCTYPE svg PUBLIC "-//W3C//DTD SVG 1.1//EN" "http://www.w3.org/Graphics/SVG/1.1/DTD/svg11.dtd">
<svg version="1.1" id="Capa_1" xmlns="http://www.w3.org/2000/svg" xmlns:xlink="http://www.w3.org/1999/xlink" x="0px" y="0px"
	 width="800px" height="800px" viewBox="0 20.945 800 800" enable-background="new 0 20.945 800 800" xml:space="preserve">
<path fill="none" d="M385.853,255.78h30.067l-53.323-53.626v30.37C362.597,245.348,373.03,255.78,385.853,255.78z"/>
<path fill="#42BEFF" d="M151.918,580.394l30.287,30.461h-17.078c-7.283,0-13.209-5.927-13.209-13.211V580.394z M0,614.818V781.32
	c0,21.85,17.778,39.625,39.635,39.625l114.923-0.037l26.422-0.008l6.604-0.003c21.854,0,39.631-17.776,39.631-39.626V618.65
	l-82.574-83.045H39.631C17.779,535.605,0,553.381,0,575.231v13.167V614.818z M187.58,794.476l-147.949,0.049
	c-7.284,0-13.21-5.923-13.21-13.204v-206.09c0-7.281,5.926-13.204,13.21-13.204h85.865v35.618c0,21.853,17.779,39.631,39.633,39.631
	h35.666v143.996C200.795,788.552,194.869,794.476,187.58,794.476z"/>
<path fill="#42BEFF" d="M438.311,580.394l30.287,30.461H451.52c-7.283,0-13.209-5.927-13.209-13.211V580.394z M286.393,614.818
	V781.32c0,21.85,17.779,39.625,39.635,39.625l114.924-0.037l26.422-0.008l6.604-0.003c21.854,0,39.631-17.776,39.631-39.626V618.65
	l-82.574-83.045h-105.01c-21.852,0-39.631,17.776-39.631,39.626v13.167V614.818z M473.973,794.476l-147.949,0.049
	c-7.284,0-13.21-5.923-13.21-13.204v-206.09c0-7.281,5.926-13.204,13.21-13.204h85.865v35.618c0,21.853,17.779,39.631,39.633,39.631
	h35.666v143.996C487.188,788.552,481.262,794.476,473.973,794.476z"/>
<path fill="#42BEFF" d="M724.703,580.394l30.287,30.461h-17.078c-7.283,0-13.209-5.927-13.209-13.211V580.394z M572.785,614.818
	V781.32c0,21.85,17.779,39.625,39.635,39.625l114.924-0.037l26.422-0.008l6.604-0.003c21.854,0,39.631-17.776,39.631-39.626V618.65
	l-82.574-83.045h-105.01c-21.852,0-39.631,17.776-39.631,39.626v13.167V614.818z M760.365,794.476l-147.949,0.049
	c-7.284,0-13.21-5.923-13.21-13.204v-206.09c0-7.281,5.926-13.204,13.21-13.204h85.865v35.618c0,21.853,17.779,39.631,39.633,39.631
	h35.666v143.996C773.58,788.552,767.655,794.476,760.365,794.476z"/>
<path fill="#FF4E55" d="M438.811,65.733l30.287,30.461H452.02c-7.283,0-13.209-5.926-13.209-13.21V65.733z M286.893,100.157v166.502
	c0,21.85,17.778,39.625,39.635,39.625l114.924-0.038l26.422-0.008l6.604-0.002c21.854,0,39.631-17.776,39.631-39.626V103.989
	l-82.574-83.044h-105.01c-21.853,0-39.631,17.776-39.631,39.625v13.167V100.157z M474.473,279.816l-147.949,0.049
	c-7.284,0-13.21-5.923-13.21-13.205V60.57c0-7.281,5.926-13.205,13.21-13.205h85.865v35.619c0,21.853,17.779,39.631,39.633,39.631
	h35.666v143.996C487.688,273.892,481.762,279.816,474.473,279.816z"/>
<path fill="#FF4E55" d="M151.918,65.733l30.287,30.461h-17.078c-7.283,0-13.209-5.926-13.209-13.21V65.733z M0,100.157V266.66
	c0,21.85,17.778,39.625,39.635,39.625l114.924-0.038l26.422-0.008l6.604-0.003c21.854,0,39.631-17.775,39.631-39.625V103.989
	l-82.574-83.044H39.631C17.779,20.945,0,38.721,0,60.57v13.167V100.157z M187.58,279.816l-147.949,0.049
	c-7.284,0-13.21-5.924-13.21-13.205V60.57c0-7.281,5.926-13.205,13.21-13.205h85.865v35.619c0,21.853,17.779,39.631,39.633,39.631
	h35.666v143.996C200.795,273.892,194.869,279.816,187.58,279.816z"/>
<path fill="#FF4E55" d="M724.703,65.733l30.287,30.461h-17.078c-7.283,0-13.209-5.926-13.209-13.21V65.733z M572.785,100.157V266.66
	c0,21.85,17.778,39.625,39.635,39.625l114.924-0.038l26.422-0.008l6.604-0.003c21.854,0,39.631-17.775,39.631-39.625V103.989
	l-82.574-83.044h-105.01c-21.853,0-39.631,17.776-39.631,39.625v13.167V100.157z M760.365,279.816l-147.949,0.049
	c-7.284,0-13.21-5.924-13.21-13.205V60.57c0-7.281,5.926-13.205,13.21-13.205h85.865v35.619c0,21.853,17.779,39.631,39.633,39.631
	h35.666v143.996C773.58,273.892,767.655,279.816,760.365,279.816z"/>
</svg>
