<?xml version="1.0" encoding="utf-8"?>
<!-- Generator: Adobe Illustrator 16.0.0, SVG Export Plug-In . SVG Version: 6.00 Build 0)  -->
<!DOCTYPE svg PUBLIC "-//W3C//DTD SVG 1.1//EN" "http://www.w3.org/Graphics/SVG/1.1/DTD/svg11.dtd">
<svg version="1.1" id="Capa_1" xmlns="http://www.w3.org/2000/svg" xmlns:xlink="http://www.w3.org/1999/xlink" x="0px" y="0px"
	 width="220.564px" height="218.182px" viewBox="0 0 220.564 218.182" enable-background="new 0 0 220.564 218.182"
	 xml:space="preserve">
<g>
	<path fill="#42BEFF" d="M163.421,131.093c-8.183-8.182-17.921-14.238-28.546-17.905c11.38-7.838,18.856-20.955,18.856-35.787
		c0-23.946-19.482-43.429-43.429-43.429c-0.007,0-0.014,0-0.02,0c-0.007,0-0.014,0-0.021,0c-23.946,0-43.429,19.482-43.429,43.429
		c0,14.832,7.476,27.949,18.856,35.787c-10.625,3.667-20.364,9.724-28.546,17.905c-14.188,14.188-22.002,33.053-22.002,53.117H46.88
		c0-34.949,28.434-63.382,63.383-63.382c0.007,0,0.014,0,0.021,0c0.006,0,0.013,0,0.02,0c34.949,0,63.383,28.433,63.383,63.382
		h11.736C185.422,164.146,177.608,145.281,163.421,131.093z M110.287,109.091c-17.467-0.009-31.675-14.222-31.675-31.69
		s14.205-31.681,31.671-31.691c17.465,0.011,31.67,14.223,31.67,31.691C141.953,94.866,127.751,109.077,110.287,109.091z"/>
</g>
<g>
	<g>
		<path fill="#42BEFF" d="M110.639,15.067c52.383,0,95,42.617,95,95.001c0,52.383-42.616,94.999-95,94.999s-95-42.616-95-94.999
			C15.638,57.684,58.256,15.067,110.639,15.067 M110.639,0.067c-60.752,0-110,49.249-110,110.001
			c0,60.751,49.249,109.999,110,109.999c60.752,0,110-49.248,110-109.999C220.638,49.316,171.391,0.067,110.639,0.067L110.639,0.067
			z"/>
	</g>
</g>
</svg>
