<?xml version="1.0" encoding="utf-8"?>
<!-- Generator: Adobe Illustrator 16.0.0, SVG Export Plug-In . SVG Version: 6.00 Build 0)  -->
<!DOCTYPE svg PUBLIC "-//W3C//DTD SVG 1.1//EN" "http://www.w3.org/Graphics/SVG/1.1/DTD/svg11.dtd">
<svg version="1.1" id="Layer_1" xmlns="http://www.w3.org/2000/svg" xmlns:xlink="http://www.w3.org/1999/xlink" x="0px" y="0px"
	 width="36px" height="36px" viewBox="0 0 36 36" enable-background="new 0 0 36 36" xml:space="preserve">
<g>
	<path fill="#AAC7DD" d="M34.001,5.536L26.982,0H0v34h34.001V5.536z M9.372,2.615h13.514v8.5H9.372V2.615z M31.385,31.385H2.615
		V2.615h4.141v11.116H25.5V2.615h0.566L31.385,6.8V31.385z"/>
	<path fill="#AAC7DD" d="M16.128,16.564c-3.129,0-5.667,2.538-5.667,5.667c0,3.131,2.537,5.666,5.667,5.666
		c3.131,0,5.667-2.535,5.667-5.666C21.795,19.102,19.259,16.564,16.128,16.564z M16.128,25.283c-1.685,0-3.051-1.367-3.051-3.053
		s1.366-3.051,3.051-3.051c1.685,0,3.051,1.365,3.051,3.051S17.813,25.283,16.128,25.283z"/>
</g>
<polygon fill="#42BEFF" points="21.355,36.121 15.067,29.834 17.188,27.713 21.355,31.879 33.971,19.264 36.092,21.385 "/>
</svg>
